External Loads File
version=1
nRows=77
nColumns=13
Range=5.000000e-03-10 seconds
endheader
time 	forceRightX 	forceRightY 	forceRightZ 	pointRightX 	pointRightY 	pointRightZ 	forceLeftX 	forceLeftY 	forceLeftZ 	pointLeftX 	pointLeftY 	pointLeftZ 		
5.005000 266.298300 362.887672 -0.000000 0.222244 0.154654 -0.137429 -109.296659 -42.834999 -0.000000 0.356606 0.481425 -0.370260
5.010000 251.572116 322.102811 -0.000000 0.214704 0.156302 -0.137648 -107.909979 -23.970368 -0.000000 0.365210 0.480211 -0.370098
5.015000 234.746332 281.750958 -0.000000 0.207586 0.158500 -0.137911 -107.993912 -5.585199 -0.000000 0.373334 0.477927 -0.369974
5.020000 216.100561 242.609145 -0.000000 0.200902 0.161290 -0.138285 -110.141611 11.805779 -0.000000 0.381046 0.475471 -0.370014
5.025000 196.334524 205.292359 -0.000000 0.194620 0.164480 -0.138517 -114.859849 27.888132 -0.000000 0.388203 0.472369 -0.370167
5.030000 176.338747 170.276300 -0.000000 0.188807 0.168088 -0.138814 -122.435558 42.601458 -0.000000 0.394892 0.468143 -0.370446
5.035000 156.793629 138.143760 -0.000000 0.183177 0.172276 -0.139129 -132.921189 56.066281 -0.000000 0.401026 0.463251 -0.371164
5.040000 138.205242 109.481485 -0.000000 0.177907 0.176820 -0.139369 -146.193870 68.581274 -0.000000 0.406600 0.457668 -0.371637
5.045000 121.088447 84.551540 -0.000000 0.172754 0.181865 -0.139701 -161.943541 80.815392 -0.000000 0.411504 0.451612 -0.372204
5.050000 105.633969 63.610254 -0.000000 0.168149 0.187329 -0.139916 -179.993893 93.375699 -0.000000 0.415698 0.445308 -0.372776
5.055000 92.071052 46.335047 -0.000000 0.163778 0.193055 -0.140175 -200.001662 107.622831 -0.000000 0.419321 0.438129 -0.372767
5.060000 80.164280 32.664263 -0.000000 0.159762 0.198954 -0.140429 -222.164998 124.375686 -0.000000 0.422391 0.430769 -0.372696
5.065000 69.676503 22.157923 -0.000000 0.156173 0.205531 -0.140831 -246.561258 145.072125 -0.000000 0.424848 0.422996 -0.372615
5.070000 60.213124 14.459632 -0.000000 0.153114 0.212797 -0.141153 -273.454262 170.899602 -0.000000 0.426687 0.414688 -0.372741
5.075000 51.359998 9.306791 -0.000000 0.150374 0.219807 -0.141749 -303.436004 202.331828 -0.000000 0.428062 0.405840 -0.372820
5.080000 42.827050 6.266598 -0.000000 0.148075 0.227310 -0.142208 -336.414820 240.433209 -0.000000 0.428831 0.396314 -0.372957
5.085000 34.427423 5.106557 -0.000000 0.146280 0.235148 -0.142095 -372.615633 284.959691 -0.000000 0.429327 0.386726 -0.372830
5.090000 26.164047 5.490214 -0.000000 0.145113 0.243359 -0.141873 -410.981015 336.317781 -0.000000 0.429601 0.376493 -0.372659
5.095000 18.181916 7.231992 -0.000000 0.144300 0.251711 -0.141648 -450.692298 393.410181 -0.000000 0.429624 0.366007 -0.372269
5.100000 10.740948 10.169979 -0.000000 0.144088 0.260427 -0.141430 -489.976177 455.411492 -0.000000 0.429268 0.355238 -0.372109
5.105000 4.119951 14.233829 -0.000000 0.144436 0.269399 -0.141226 -527.223038 520.870204 -0.000000 0.428353 0.344324 -0.371976
5.110000 -1.458142 19.367944 -0.000000 0.145259 0.278427 -0.140959 -561.122489 588.190439 -0.000000 0.426895 0.333449 -0.371941
5.115000 -5.847195 25.494505 -0.000000 0.146690 0.287525 -0.140651 -590.241514 656.340638 -0.000000 0.424849 0.322706 -0.371895
5.120000 -8.926671 32.495260 -0.000000 0.147865 0.296803 -0.141288 -611.804105 725.703247 -0.000000 0.422364 0.311854 -0.371795
5.125000 -10.738864 40.131889 -0.000000 0.150092 0.306040 -0.141032 -624.861504 794.888426 -0.000000 0.419309 0.300936 -0.371690
5.130000 -11.419623 48.062701 -0.000000 0.152916 0.315363 -0.140878 -627.911500 862.785829 -0.000000 0.415839 0.290277 -0.371666
5.135000 -11.119239 55.905407 -0.000000 0.156277 0.324864 -0.141006 -618.198291 928.941561 -0.000000 0.411522 0.279714 -0.371795
5.140000 -10.160208 63.239547 -0.000000 0.160310 0.334351 -0.141097 -595.281074 991.187793 -0.000000 0.406729 0.269336 -0.371898
5.145000 -8.955942 69.661366 -0.000000 0.164620 0.343699 -0.141098 -559.938935 1046.989304 -0.000000 0.401500 0.259233 -0.371982
5.150000 -7.751291 74.817079 -0.000000 0.169389 0.352934 -0.141161 -510.798367 1095.350412 -0.000000 0.395614 0.249097 -0.372125
5.155000 -7.056388 78.362151 -0.000000 0.174778 0.362364 -0.141390 -451.193666 1133.327272 -0.000000 0.389479 0.239686 -0.372303
5.160000 -7.209192 80.082080 -0.000000 0.180476 0.371692 -0.141519 -383.384178 1159.459503 -0.000000 0.382949 0.230631 -0.372362
5.165000 -8.391300 79.900411 -0.000000 0.186706 0.381056 -0.141617 -309.868963 1172.781811 -0.000000 0.376416 0.221894 -0.372259
5.170000 -10.733394 77.792672 -0.000000 0.193305 0.389914 -0.141563 -234.870388 1172.381418 -0.000000 0.369379 0.213665 -0.372344
5.175000 -13.988041 73.785615 -0.000000 0.200383 0.398717 -0.141415 -158.598295 1158.783949 -0.000000 0.361939 0.205852 -0.372434
5.180000 -18.068114 67.959086 -0.000000 0.207925 0.407712 -0.141151 -84.375102 1132.340492 -0.000000 0.354447 0.198528 -0.372403
5.185000 -22.881629 60.536544 -0.000000 0.215729 0.416344 -0.140625 -15.876542 1094.355073 -0.000000 0.346618 0.191774 -0.372545
5.190000 -28.179077 52.016345 -0.000000 0.223839 0.424736 -0.140345 45.890505 1047.025902 -0.000000 0.338520 0.185456 -0.372670
5.195000 -33.799503 43.115952 -0.000000 0.232080 0.432503 -0.139883 97.970081 992.995020 -0.000000 0.330342 0.179695 -0.372787
5.200000 -39.373231 34.802869 -0.000000 0.240304 0.439663 -0.139771 140.551451 934.960497 -0.000000 0.321937 0.174649 -0.373020
5.205000 -44.458802 28.096863 -0.000000 0.248836 0.446386 -0.139723 175.617084 875.012106 -0.000000 0.313370 0.170115 -0.373243
5.210000 -48.707617 23.763364 -0.000000 0.257869 0.452275 -0.139659 204.228931 814.808330 -0.000000 0.304654 0.166097 -0.373535
5.215000 -51.909917 22.121723 -0.000000 0.266663 0.457930 -0.139876 225.667566 756.049422 -0.000000 0.295773 0.162764 -0.373961
5.220000 -53.909973 23.288647 -0.000000 0.275480 0.462832 -0.140189 241.533073 699.496476 -0.000000 0.286834 0.159896 -0.374397
5.225000 -54.655622 27.157500 -0.000000 0.284500 0.467029 -0.140461 253.694560 645.221110 -0.000000 0.277691 0.157650 -0.374976
5.230000 -54.236005 33.300189 -0.000000 0.293573 0.470469 -0.140491 262.116342 593.496214 -0.000000 0.268634 0.156121 -0.375409
5.235000 -52.758079 41.296494 -0.000000 0.302576 0.473130 -0.140575 267.579472 543.958947 -0.000000 0.259523 0.155166 -0.375845
5.240000 -50.359169 50.759928 -0.000000 0.311554 0.475129 -0.140597 270.411830 496.182729 -0.000000 0.250488 0.155040 -0.376221
5.245000 -47.201103 61.411436 -0.000000 0.320437 0.476470 -0.140211 270.578737 449.843734 -0.000000 0.241595 0.155489 -0.376581
5.250000 -43.446802 73.119262 -0.000000 0.329030 0.477080 -0.139978 267.983587 404.744808 -0.000000 0.232873 0.156576 -0.376844
5.255000 -39.204366 85.910203 -0.000000 0.337317 0.476866 -0.139690 262.762127 360.755479 -0.000000 0.224402 0.158398 -0.377109
5.260000 -34.593287 99.885501 -0.000000 0.345323 0.475793 -0.139043 255.009014 318.068024 -0.000000 0.216297 0.160769 -0.377450
5.265000 -29.942333 115.134699 -0.000000 0.352678 0.474682 -0.138294 244.544924 277.494933 -0.000000 0.208534 0.163756 -0.377800
5.270000 -25.255748 131.901424 -0.000000 0.359729 0.472899 -0.137513 232.407868 239.197811 -0.000000 0.201079 0.167298 -0.378095
5.275000 -20.700799 150.412256 -0.000000 0.366210 0.470212 -0.136553 219.116591 204.003211 -0.000000 0.194035 0.171578 -0.378361
5.280000 -16.488074 170.888481 -0.000000 0.372167 0.466963 -0.135519 205.339151 172.787333 -0.000000 0.187292 0.176373 -0.378567
5.285000 -12.784112 193.471205 -0.000000 0.377781 0.462874 -0.134299 191.944531 146.166736 -0.000000 0.180965 0.181740 -0.378674
5.290000 -10.088551 218.175588 -0.000000 0.382800 0.458013 -0.133401 179.534966 124.807537 -0.000000 0.174912 0.187619 -0.378656
5.295000 -9.394963 244.938673 -0.000000 0.387433 0.453310 -0.132871 168.480773 109.300847 -0.000000 0.169227 0.193837 -0.378753
5.300000 -10.907619 273.674997 -0.000000 0.391444 0.447556 -0.132370 159.428761 99.228090 -0.000000 0.163862 0.200524 -0.378804
5.305000 -15.100440 304.207007 -0.000000 0.395384 0.441151 -0.131989 152.548778 94.167685 -0.000000 0.158891 0.207540 -0.378916
5.310000 -22.400975 336.248201 -0.000000 0.398994 0.434060 -0.131252 147.786910 93.426683 -0.000000 0.154306 0.214927 -0.378968
5.315000 -32.697629 369.417278 -0.000000 0.402345 0.426146 -0.130581 145.049145 95.922373 -0.000000 0.150127 0.222700 -0.378813
5.320000 -45.999905 403.231905 -0.000000 0.405556 0.417757 -0.130189 144.027613 100.603349 -0.000000 0.146473 0.230888 -0.378375
5.325000 -62.411453 437.109066 -0.000000 0.408527 0.409098 -0.130055 144.222384 106.470173 -0.000000 0.143490 0.239299 -0.377680
5.330000 -80.720444 470.577193 -0.000000 0.411353 0.399907 -0.130086 145.312501 112.213314 -0.000000 0.141046 0.247949 -0.377354
5.335000 -100.710924 503.037231 -0.000000 0.413574 0.390293 -0.130128 146.667015 117.067697 -0.000000 0.139265 0.256710 -0.377476
5.340000 -121.655516 534.069885 -0.000000 0.415559 0.380659 -0.130176 147.780025 120.304985 -0.000000 0.138012 0.265600 -0.377780
5.345000 -142.707155 563.491358 -0.000000 0.416709 0.370768 -0.130197 148.200463 121.402973 -0.000000 0.137487 0.274678 -0.377737
5.350000 -162.707196 591.410580 -0.000000 0.417851 0.360652 -0.130731 147.614637 120.046838 -0.000000 0.137705 0.283762 -0.377622
5.355000 -180.698187 617.996040 -0.000000 0.418316 0.350342 -0.130914 145.795144 116.258492 -0.000000 0.138578 0.293018 -0.377466
5.360000 -195.762755 643.358018 -0.000000 0.418214 0.339865 -0.131129 142.670675 110.266760 -0.000000 0.139894 0.302300 -0.377333
5.365000 -207.734226 667.284683 -0.000000 0.417549 0.329462 -0.131653 138.201659 102.549794 -0.000000 0.141623 0.311489 -0.377242
5.370000 -214.854771 690.032413 -0.000000 0.416098 0.319012 -0.131629 132.722987 93.235079 -0.000000 0.143844 0.320860 -0.376210
5.375000 -217.020419 711.374149 -0.000000 0.414173 0.308581 -0.131775 126.353711 82.723077 -0.000000 0.146650 0.330189 -0.375960
5.380000 -214.023222 731.144622 -0.000000 0.411619 0.298293 -0.131936 119.229441 71.256428 -0.000000 0.149948 0.339467 -0.375632
5.385000 -204.972503 749.379467 -0.000000 0.408564 0.287894 -0.132115 111.455388 58.864350 -0.000000 0.153809 0.348620 -0.375426
